<svg width="150px" alt=":oops:" title="Oops not found" height="150px" viewBox="0 0 150 150" version="1.1" xmlns="http://www.w3.org/2000/svg" xmlns:xlink="http://www.w3.org/1999/xlink">
    <defs></defs>
    <g id="Page-1" stroke="none" stroke-width="1" fill="none" fill-rule="evenodd">
        <g id="Emojis" transform="translate(-102.000000, -643.000000)">
            <g id="straightface" transform="translate(102.000000, 643.000000)">
                <path d="M120,120 L120,140 L30,140 L30,120 L30,120 L30,130 L20,130 L20,120 L10,120 L10,30 L20,30 L20,20 L30,20 L30,30 L30,30 L30,10 L120,10 L120,30 L120,30 L120,20 L130,20 L130,30 L140,30 L140,120 L130,120 L130,130 L120,130 L120,120 L120,120 Z M0,50 L0,100 L10,100 L10,50 L0,50 Z M50,140 L50,150 L100,150 L100,140 L50,140 Z M50,0 L50,10 L100,10 L100,0 L50,0 Z M140,50 L140,100 L150,100 L150,50 L140,50 Z" id="Rectangle-1-Copy-18" fill="#F9C20B"></path>
                <rect id="Rectangle-161-Copy-94" fill="#000000" x="40" y="70" width="10" height="10"></rect>
                <rect id="Rectangle-161-Copy-97" fill="#000000" x="40" y="60" width="10" height="10"></rect>
                <rect id="Rectangle-161-Copy-98" fill="#000000" x="40" y="95" width="70" height="10"></rect>
                <rect id="Rectangle-161-Copy-101" fill="#000000" x="100" y="60" width="10" height="10"></rect>
                <rect id="Rectangle-161-Copy-153" fill="#000000" x="100" y="70" width="10" height="10"></rect>
            </g>
        </g>
    </g>
</svg>