<svg width="106px" alt=":ops:" title="Sorry! can't help you here" height="106px" viewBox="0 0 150 150" version="1.1" xmlns="http://www.w3.org/2000/svg" xmlns:xlink="http://www.w3.org/1999/xlink">
    <g id="Page-1" stroke="none" stroke-width="1" fill="none" fill-rule="evenodd">
        <g id="Emojis" transform="translate(-102.000000, -263.000000)">
            <g id="sad" transform="translate(102.000000, 263.000000)">
                <path d="M120,120 L120,140 L30,140 L30,120 L30,120 L30,130 L20,130 L20,120 L10,120 L10,30 L20,30 L20,20 L30,20 L30,30 L30,30 L30,10 L120,10 L120,30 L120,30 L120,20 L130,20 L130,30 L140,30 L140,120 L130,120 L130,130 L120,130 L120,120 L120,120 Z M0,50 L0,100 L10,100 L10,50 L0,50 Z M50,140 L50,150 L100,150 L100,140 L50,140 Z M50,0 L50,10 L100,10 L100,0 L50,0 Z M140,50 L140,100 L150,100 L150,50 L140,50 Z" id="Rectangle-1-Copy-6" fill="#F9C20B"></path>
                <rect id="Rectangle-161-Copy-55" fill="#000000" x="100" y="90" width="10" height="10"></rect>
                <rect id="Rectangle-161-Copy-58" fill="#000000" x="40" y="90" width="10" height="10"></rect>
                <rect id="Rectangle-161-Copy-59" fill="#000000" x="50" y="80" width="10" height="10"></rect>
                <rect id="Rectangle-161-Copy-63" fill="#000000" x="50" y="50" width="10" height="10"></rect>
                <rect id="Rectangle-161-Copy-68" fill="#000000" x="90" y="50" width="10" height="10"></rect>
                <rect id="Rectangle-161-Copy-61" fill="#000000" x="110" y="80" width="10" height="10"></rect>
                <rect id="Rectangle-161-Copy-60" fill="#000000" x="30" y="80" width="10" height="10"></rect>
                <rect id="Rectangle-161-Copy-64" fill="#000000" x="30" y="60" width="10" height="10"></rect>
                <rect id="Rectangle-161-Copy-65" fill="#000000" x="40" y="60" width="10" height="10"></rect>
                <rect id="Rectangle-161-Copy-66" fill="#000000" x="110" y="60" width="10" height="10"></rect>
                <rect id="Rectangle-161-Copy-67" fill="#000000" x="100" y="60" width="10" height="10"></rect>
                <rect id="Rectangle-161-Copy-62" fill="#000000" x="90" y="80" width="10" height="10"></rect>
                <rect id="Rectangle-165-Copy" fill="#000000" x="60" y="110" width="30" height="10"></rect>
            </g>
        </g>
    </g>
</svg>